<?xml version="1.0" encoding="UTF-8"?>
<svg width="50px" height="50px" viewBox="0 0 50 50" version="1.1" xmlns="http://www.w3.org/2000/svg" xmlns:xlink="http://www.w3.org/1999/xlink">
    <!-- Generator: Sketch 60 (88103) - https://sketch.com -->
    <title>椭圆形</title>
    <desc>Created with Sketch.</desc>
    <g id="Page-1" stroke="none" stroke-width="1" fill="none" fill-rule="evenodd">
        <g id="iPhone-8备份-2" transform="translate(-17.000000, -259.000000)">
            <circle id="椭圆形" fill="#F0F0F0" cx="42" cy="284" r="25"></circle>
            <g id="数据分析" transform="translate(29.000000, 273.000000)" fill-rule="nonzero">
                <path d="M3.24,9.53658537 L3.24,17.3902439 L5.4,17.3902439 L5.4,9.53658537 L3.24,9.53658537 Z M3.24,7.29268293 L5.4,7.29268293 C6.591375,7.29268293 7.56,8.29893293 7.56,9.53658537 L7.56,17.3902439 C7.56,18.6278963 6.591375,19.6341463 5.4,19.6341463 L3.24,19.6341463 C2.048625,19.6341463 1.08,18.6278963 1.08,17.3902439 L1.08,9.53658537 C1.08,8.29893293 2.048625,7.29268293 3.24,7.29268293 Z M21.06,0 L23.22,0 C24.411375,0 25.38,1.00625 25.38,2.24390244 L25.38,17.3902439 C25.38,18.6278963 24.411375,19.6341463 23.22,19.6341463 L21.06,19.6341463 C19.868625,19.6341463 18.9,18.6278963 18.9,17.3902439 L18.9,2.24390244 C18.9,1.00625 19.868625,0 21.06,0 Z M21.06,2.24390244 L21.06,17.3902439 L23.22,17.3902439 L23.22,2.24390244 L21.06,2.24390244 Z M0.54,21.8780488 L26.46,21.8780488 C26.757,21.8780488 27,22.1304878 27,22.4390244 C27,22.747561 26.757,23 26.46,23 L0.54,23 C0.243,23 0,22.747561 0,22.4390244 C0,22.1304878 0.243,21.8780488 0.54,21.8780488 Z" id="形状" fill="#333333"></path>
                <path d="M11.6666667,6.06896552 L11.6666667,16.9310345 L14.3333333,16.9310345 L14.3333333,6.06896552 L11.6666667,6.06896552 Z M11.6666667,4 L14.3333333,4 C15.8041667,4 17,4.92780172 17,6.06896552 L17,16.9310345 C17,18.0721983 15.8041667,19 14.3333333,19 L11.6666667,19 C10.1958333,19 9,18.0721983 9,16.9310345 L9,6.06896552 C9,4.92780172 10.1958333,4 11.6666667,4 Z" id="形状" fill="#0070DD"></path>
            </g>
        </g>
    </g>
</svg>