<?xml version="1.0" encoding="UTF-8"?>
<svg width="50px" height="50px" viewBox="0 0 50 50" version="1.1" xmlns="http://www.w3.org/2000/svg" xmlns:xlink="http://www.w3.org/1999/xlink">
    <!-- Generator: Sketch 60 (88103) - https://sketch.com -->
    <title>椭圆形</title>
    <desc>Created with Sketch.</desc>
    <g id="Page-1" stroke="none" stroke-width="1" fill="none" fill-rule="evenodd">
        <g id="iPhone-8备份-2" transform="translate(-90.000000, -259.000000)">
            <circle id="椭圆形" fill="#F0F0F0" cx="115" cy="284" r="25"></circle>
            <g id="医院" transform="translate(104.000000, 272.000000)" fill-rule="nonzero">
                <path d="M21.1960716,24 L1.80392842,24 C0.809040105,24 0,23.1720261 0,22.1538546 L0,2.76920434 C0,1.24218078 1.21377502,0 2.7058792,0 L13.9803848,0 C15.4724889,0 16.686264,1.24218075 16.686264,2.76920434 L16.686264,9.23067198 L21.1960716,9.23067198 C22.1909599,9.23067198 23,10.0588658 23,11.0768174 L23,22.1538546 C23,23.1720536 22.1909599,24 21.1960716,24 Z M16.686264,22.1538821 L21.1960716,22.1538821 L21.1960716,11.0768448 L16.686264,11.0768448 L16.686264,22.1538821 Z M2.7058792,1.84614539 C2.20866335,1.84614539 1.80392842,2.26013233 1.80392842,2.76920434 L1.80392842,22.1538546 L14.8823356,22.1538546 L14.8823356,2.76920434 C14.8823356,2.26013236 14.4776006,1.84614539 13.9803848,1.84614539 L2.7058792,1.84614539 Z" id="形状" fill="#333C4F"></path>
                <polygon id="路径" fill="#FF5B5C" points="13 8.37500669 9.6249933 8.37500669 9.6249933 5 7.3750067 5 7.3750067 8.37500669 4 8.37500669 4 10.6249933 7.3750067 10.6249933 7.3750067 14 9.6249933 14 9.6249933 10.6249933 13 10.6249933"></polygon>
            </g>
        </g>
    </g>
</svg>