<?xml version="1.0" encoding="UTF-8"?>
<svg width="50px" height="50px" viewBox="0 0 50 50" version="1.1" xmlns="http://www.w3.org/2000/svg" xmlns:xlink="http://www.w3.org/1999/xlink">
    <!-- Generator: Sketch 60 (88103) - https://sketch.com -->
    <title>椭圆形</title>
    <desc>Created with Sketch.</desc>
    <g id="Page-1" stroke="none" stroke-width="1" fill="none" fill-rule="evenodd">
        <g id="iPhone-8" transform="translate(-91.000000, -177.000000)">
            <rect fill="#FFFFFF" x="0" y="0" width="375" height="1099"></rect>
            <circle id="椭圆形" fill="#F0F0F0" cx="116" cy="202" r="25"></circle>
            <g id="会员查询" transform="translate(103.000000, 190.000000)" fill-rule="nonzero">
                <path d="M24.6925745,24.6634909 C24.496077,24.8789078 24.2290982,25 23.9506539,25 C23.6722095,25 23.4052307,24.8789078 23.2087332,24.6634909 L22.1720292,23.530346 C20.1275669,24.8980189 17.4684909,24.3708169 15.9948704,22.3056309 C14.5212499,20.2404449 14.7032297,17.2961533 16.4176182,15.4659027 C18.1320067,13.6356521 20.831844,13.503367 22.6894676,15.1585982 C24.5470913,16.8138293 24.9698436,19.7284906 23.6715413,21.9294937 L24.6925745,23.0436261 C24.8894068,23.2583704 25,23.5497355 25,23.8535585 C25,24.1573815 24.8894068,24.4487466 24.6925745,24.6634909 L24.6925745,24.6634909 Z M19.7368022,16.0280145 C18.5767519,16.0280145 17.5309605,16.7911515 17.0871913,17.9614934 C16.6434221,19.1318353 16.8890929,20.4788374 17.7096214,21.3742498 C18.5301499,22.2696623 19.7639008,22.5370986 20.8354452,22.0518247 C21.9069897,21.5665508 22.6052449,20.4241605 22.6045411,19.1574716 C22.6033873,17.4288996 21.3198511,16.0282239 19.7368022,16.0280145 L19.7368022,16.0280145 Z" id="形状" fill="#CAA07D"></path>
                <path d="M13.4585756,16.0412246 C13.3106721,15.8113453 13.1963844,15.561466 13.119186,15.2991816 C12.8195327,14.2486738 13.1094672,13.118057 13.8775436,12.3419218 L13.9138808,12.3055471 C15.0992006,11.1670203 15.8357558,9.119127 15.8357558,6.95847227 C15.8357558,4.09214914 14.2093023,2.16792967 11.7885174,2.16792967 C9.36773257,2.16792967 7.74200582,4.09214914 7.74200582,6.95847227 C7.74200582,9.10821461 8.4742006,11.1561079 9.6522529,12.2946347 C9.88245951,12.5663658 10.0855813,12.8599716 10.2587209,13.171264 C10.3935722,13.5182374 10.4939835,13.8776538 10.5585029,14.2443165 C10.586615,14.5996492 10.5496718,14.9571341 10.4494913,15.2991816 C10.1622348,16.2902726 9.3648784,17.0502438 8.36191859,17.2888754 L8.30595931,17.2997878 C5.53124999,17.8017581 2.2292878,18.9621097 2.16497092,21.3664747 C2.79651163,21.8029706 5.84229651,21.8029706 6.86337209,21.8029706 C7.51925872,21.8029706 8.22347385,21.7993331 8.97093023,21.7920582 C9.54505815,21.7884207 11.7994186,21.7847833 13.3615552,21.7920582 C13.4018895,22.508639 14.0388808,23.3488936 14.581032,23.9927251 C13.5813953,23.9818127 9.75617734,23.9818127 8.98873546,23.9854501 C8.23401162,23.9927251 7.52434593,24 6.86264534,24 C3.48873546,24 0,23.9090633 0,21.3773871 C0,19.2021825 1.37027616,16.3613216 7.890625,15.1755077 C8.12674281,15.1078496 8.31040897,14.9216494 8.375,14.6844498 C8.45781182,14.372422 8.35786031,14.0403142 8.11664243,13.8260079 L7.36409884,12.9130039 L6.81904069,12.0800242 C5.9879978,10.5021627 5.56217549,8.74211663 5.57994185,6.95847227 C5.57994185,2.92816005 8.19186047,0 11.7896076,0 C15.3873547,0 18,2.92816005 18,6.95847227 C18,9.71930888 17.0403343,12.2909973 15.4324128,13.8514701 C15.3020204,13.9829438 15.2131772,14.1499337 15.1769622,14.3316156 C15.1486192,14.4771143 14.1944041,14.989997 13.4585756,16.0412246 Z" id="路径" fill="#333C4F"></path>
            </g>
        </g>
    </g>
</svg>