<?xml version="1.0" encoding="UTF-8"?>
<svg width="50px" height="50px" viewBox="0 0 50 50" version="1.1" xmlns="http://www.w3.org/2000/svg" xmlns:xlink="http://www.w3.org/1999/xlink">
    <!-- Generator: Sketch 60 (88103) - https://sketch.com -->
    <title>椭圆形</title>
    <desc>Created with Sketch.</desc>
    <g id="Page-1" stroke="none" stroke-width="1" fill="none" fill-rule="evenodd">
        <g id="iPhone-8" transform="translate(-236.000000, -177.000000)">
            <rect fill="#FFFFFF" x="0" y="0" width="375" height="1099"></rect>
            <circle id="椭圆形" fill="#F0F0F0" cx="261" cy="202" r="25"></circle>
            <g id="灯泡" transform="translate(248.000000, 187.000000)" fill-rule="nonzero">
                <path d="M9.77698901,16.6607089 C8.6569251,15.8547245 7.99937061,14.5983193 8,13.2653741 C8,10.9097243 10.0147731,9 12.5,9 C14.9852274,9 17,10.9097243 17,13.2653741 C17,14.87216 16.0616478,16.2729476 14.6758524,17" id="路径" fill="#64EDAC"></path>
                <path d="M20,13.0417639 C20,9.15825805 16.8604732,6 13,6 C9.1395268,6 6,9.15825805 6,13.0417639 C6,15.2591599 7.00835073,17.3025945 8.7644398,18.6477332 C9.19311065,18.9760548 9.8044537,18.8927493 10.1308281,18.4615209 C10.4572025,18.0302925 10.3743911,17.415302 9.94572025,17.0869803 C8.67675712,16.1167164 7.95093946,14.6417192 7.95093946,13.0393137 C7.95093946,10.2363291 10.2160752,7.95767898 13.0024356,7.95767895 C15.7887961,7.95767895 18.0539318,10.2363291 18.0539318,13.0393137 C18.0539318,14.8867354 17.0553236,16.5920477 15.4453723,17.4888068 C15.4258873,17.5010576 15.4088379,17.5157586 15.3893528,17.5280094 C15.3698678,17.5402602 15.3503828,17.5476107 15.3333333,17.5623116 C14.999652,17.8146783 14.8048017,17.9616879 14.7755741,20.57356 L9.83368129,19.4391353 C9.31002088,19.3190774 8.78636049,19.647399 8.66701461,20.1766339 C8.54766876,20.7034186 8.87404314,21.2302033 9.40013917,21.3502612 L15.5281837,22.759104 C15.6012526,22.7762551 15.6718859,22.7836056 15.7449548,22.7836056 C15.9641615,22.7836056 16.1784969,22.7101007 16.3514266,22.5704415 C16.5828114,22.3842293 16.7192067,22.1024607 16.7192067,21.803541 L16.7192067,21.2767563 C16.7192067,19.9610196 16.7581767,19.2921256 16.7874043,18.963804 C18.7892501,17.6673986 19.9993288,15.4367615 20,13.0417639 L20,13.0417639 Z M14.9826026,25.5081851 C14.9095337,25.5081851 14.8340292,25.5008346 14.7585247,25.4812333 L9.29297148,24.1924484 C9.04119491,24.1332856 8.82316663,23.975775 8.68699678,23.7546727 C8.55082693,23.5335704 8.5077077,23.2670496 8.56715378,23.0139208 C8.68893528,22.4871361 9.21259567,22.1588145 9.73869173,22.2837727 L15.204245,23.5725576 C15.7279054,23.6950656 16.0542797,24.2243005 15.9300626,24.7510852 C15.8273448,25.1941704 15.4348785,25.5077838 14.9826026,25.5081851 Z M13.8938761,27.9999996 C13.8183716,27.9999996 13.7453027,27.9901986 13.6697982,27.9730474 L9.91649269,27.0787385 C9.66513171,27.0190905 9.44765412,26.8613653 9.31196959,26.6403093 C9.17628506,26.4192532 9.13352547,26.1530023 9.19311065,25.9002109 C9.3171825,25.3740514 9.84144339,25.048408 10.3646486,25.1725129 L14.1179541,26.0668219 C14.6416145,26.1917801 14.9655532,26.7185648 14.8413361,27.2453495 C14.7381328,27.6877683 14.3456175,28.0004058 13.8938761,27.9999996 L13.8938761,27.9999996 Z" id="形状" fill="#333C4F"></path>
                <path d="M15.2421295,14 C14.6881893,14 14.2395228,13.5584141 14.2395228,13.0132158 C14.2395228,11.1777973 12.5150391,11.0347136 11.986164,11.0347136 C11.4322238,11.0347136 10.9835572,10.5931277 10.9835572,10.0479295 C10.9835572,9.5027313 11.4322238,9.06114536 11.986164,9.06114536 C14.4951875,9.06114536 16.2447363,10.6868722 16.2447363,13.0132158 C16.2447363,13.5584141 15.7960698,14 15.2421295,14 L15.2421295,14 Z M12.5,3.44881057 C11.9485663,3.44881057 11.4973932,3.00475771 11.4973932,2.46202644 L11.4973932,0.986784131 C11.4973932,0.444052863 11.9485663,0 12.5,0 C13.0514337,0 13.5026068,0.444052863 13.5026068,0.986784131 L13.5026068,2.46202644 C13.5026068,3.00475771 13.0514337,3.44881057 12.5,3.44881057 Z M5.96049728,6.11312775 C5.56840722,6.49792024 4.93389877,6.49792024 4.54180871,6.11312775 L3.48155204,5.06960352 C3.09058956,4.68370123 3.09058956,4.05920625 3.48155204,3.67330395 C3.8736421,3.28851146 4.50815055,3.28851146 4.90024061,3.67330395 L5.96049728,4.71682818 C6.35151392,5.101674 6.35151392,5.73074889 5.96049728,6.11312775 L5.96049728,6.11312775 Z M3.50411069,12.5494273 C3.50411069,13.0921586 3.05293764,13.5362114 2.50150389,13.5362114 L1.00260677,13.5362114 C0.45117305,13.5362114 0,13.0921586 0,12.5494273 C0,12.006696 0.45117305,11.5626432 1.00260677,11.5626432 L2.50150389,11.5626432 C3.05293761,11.5626432 3.50411069,12.006696 3.50411069,12.5494273 Z M19.0395027,6.11312775 C18.6485402,5.72722546 18.6485402,5.10273047 19.0395027,4.71682818 L20.0997594,3.67330395 C20.4918494,3.28851146 21.1263579,3.28851146 21.518448,3.67330395 C21.9094104,4.05920625 21.9094104,4.68370123 21.518448,5.06960352 L20.4581913,6.11312775 C20.0671747,6.49797356 19.4280128,6.49797356 19.0395027,6.11312775 Z M21.4958893,12.5494273 C21.4958893,12.006696 21.9470624,11.5626432 22.4984961,11.5626432 L23.9973932,11.5626432 C24.5488269,11.5626432 25,12.006696 25,12.5494273 C25,13.0921586 24.5488269,13.5362114 23.9973932,13.5362114 L22.4984961,13.5362114 C21.9470624,13.5362114 21.4958893,13.0921586 21.4958893,12.5494273 Z" id="形状" fill="#333C4F"></path>
            </g>
        </g>
    </g>
</svg>