<?xml version="1.0" encoding="UTF-8"?>
<svg width="50px" height="50px" viewBox="0 0 50 50" version="1.1" xmlns="http://www.w3.org/2000/svg" xmlns:xlink="http://www.w3.org/1999/xlink">
    <!-- Generator: Sketch 60 (88103) - https://sketch.com -->
    <title>椭圆形</title>
    <desc>Created with Sketch.</desc>
    <g id="Page-1" stroke="none" stroke-width="1" fill="none" fill-rule="evenodd">
        <g id="iPhone-8" transform="translate(-305.000000, -177.000000)">
            <rect fill="#FFFFFF" x="0" y="0" width="375" height="1066"></rect>
            <circle id="椭圆形" fill="#F0F0F0" cx="330" cy="202" r="25"></circle>
            <g id="碎纸机" transform="translate(318.000000, 192.000000)" fill-rule="nonzero">
                <path d="M21.8846018,7.96056955 L21.8846018,2 C21.8846018,0.8954305 20.9891713,-2.02906125e-16 19.8846018,0 L4.11539823,0 C3.01082873,2.02906125e-16 2.11539823,0.8954305 2.11539823,2 L2.11539823,7.96056955 L2.11539823,7.96056955 L0,7.96056955 L0,14.7119387 L24,14.7119387 L24,7.96056955 L21.8846018,7.96056955 Z M4.14584071,2.01533406 L19.8456637,2.01533406 L19.8456637,7.96896678 L4.14584071,7.96896678 L4.14584071,2.01533406 Z M21.9695575,12.7050018 L2.03044248,12.7050018 L2.03044248,9.96750639 L21.9695575,9.96750639 L21.9695575,12.7050018 Z" id="形状" fill="#333C4F"></path>
                <polygon id="路径" fill="#FF7A45" points="3.21132743 15.6440307 5.24176991 15.6440307 5.24176991 21.7991968 3.21132743 21.7991968"></polygon>
                <polygon id="路径" fill="#FF7A45" points="7.11929204 15.6860168 9.14973451 15.6860168 9.14973451 19.867835 7.11929204 19.867835"></polygon>
                <polygon id="路径" fill="#FF7A45" points="10.9423009 15.6440307 12.9727434 15.6440307 12.9727434 23 10.9423009 23"></polygon>
                <polygon id="路径" fill="#FF7A45" points="14.9267257 15.6860168 16.9571681 15.6860168 16.9571681 21.471705 14.9267257 21.471705"></polygon>
                <polygon id="路径" fill="#FF7A45" points="18.9111504 15.6020445 20.9415929 15.6020445 20.9415929 20.5060241 18.9111504 20.5060241"></polygon>
            </g>
        </g>
    </g>
</svg>